<?xml version="1.0" encoding="UTF-8"?>
<svg id="Layer_1" xmlns="http://www.w3.org/2000/svg" version="1.1" viewBox="0 0 1878.26 529.04">
  <!-- Generator: Adobe Illustrator 29.3.1, SVG Export Plug-In . SVG Version: 2.1.0 Build 151)  -->
  <defs>
    <style>
      .st0 {
        fill: #c4b9a5;
      }
    </style>
  </defs>
  <path class="st0" d="M528.82,200.84c-3.33-28.57-24.24-48.91-45.76-65.64-26.84,27.08-28.91,71.8-8.21,103.13-16.5,8.25-32.51,13.83-51.21,14.89l-405.94.07c-1.45.5-2.59,9.19-2.82,11.24-4.79,42.35,10.22,90.81,38.34,122.66,56.81,64.35,143.48,71.33,223.97,58.89,107.87-16.68,197.37-80.95,237.64-183.42,22.72.82,45.99-1.95,65.09-15.08,12.75-8.77,19.82-20.51,27.05-33.87-22.6-16.76-51.21-19.03-78.15-12.87ZM137.21,367.98c-41.45,4.46-49.61-56.26-7.53-60.65,43.49-4.54,47.61,56.34,7.53,60.65Z"/>
  <path class="st0" d="M913.73,133.99c-.73-9.29-4.49-17.01-14.58-18.25-7.01-.86-14.31.15-18.64,6.22-.65.91-3.57,6.76-3.57,7.37v79.32c-16.41-13.48-35.46-23.59-56.83-26.46-48.73-6.55-100.9,23.49-114.27,71.61-17.17,61.79,18.67,131.32,85.45,138.48,64.86,6.96,119.45-32.95,122.45-99.59,2.36-52.25-1.86-106.26-.01-158.7ZM866.32,322.68c-43.11,70.82-158.6,19.18-124.3-61.65,10.77-25.38,31.35-42.68,59.66-44.34,56.54-3.3,94.72,56.56,64.64,105.99Z"/>
  <path class="st0" d="M1706.01,225.6c-43.99-67.38-146.66-55.67-182.27,14.55-43.22,85.25,46.53,181.98,132.88,144.46,4.06-1.76,15.85-7.55,18.56-10.37,5.95-6.16,3.94-17.72-.76-24.1-6.03-8.2-18.43-4.32-26.55-1.62-9.26,3.07-14.54,7.03-25.03,7.81-9.98.74-20.59-.1-30.11-3.12,23.27-22.6,49.77-41.77,74.68-62.53,11.67-9.73,26.48-21.33,37.19-31.62,12.11-11.62,9.83-20.57,1.41-33.46ZM1666.94,240.19l-105.11,91.13c-6.13-8.83-11.89-15.07-14.86-25.78-12-43.3,16.68-85.28,61.24-89.63,15.75-1.54,28.69,1.93,42.15,9.8,2.98,1.74,17.23,11.23,16.58,14.48Z"/>
  <path class="st0" d="M1026.2,183.09c-134.91,9.93-123.15,207.05,5.21,210.01,53.63,1.24,103.59-33.64,109.84-88.83,7.97-70.44-43.7-126.43-115.05-121.18ZM1098.65,321.11c-26.91,45.57-90.11,46.49-119.09,2.66-28.91-43.76,3.68-103.41,54.46-107.07,55.01-3.97,92.78,56.76,64.63,104.41Z"/>
  <path class="st0" d="M1404.2,243.81c18.45-16.08,34.55-36.28,52.78-52.38,8-7.06,14.69-12.43,25.56-5.95,9.38,5.59,9.14,18.39,2.22,25.89-22.7,25.92-47.64,49.84-72,74.22l-.76,1.6,75.53,76.18c11.07,14.06-4.57,32.59-20.79,24.67-7.76-3.79-25.56-23.45-32.83-30.51l-29.71-28.54v42.59c0,.62-1.19,5.29-1.52,6.3-5.5,17.11-31.69,16-35.18-1.68l.28-245.74c2.73-13.6,24.28-15.71,32.14-6.22,1.88,2.27,4.29,7.76,4.29,10.57v109.01Z"/>
  <path class="st0" d="M1260.1,186.22c20.05-1.47,50.18,1.44,66.24,14.64,8.43,6.92,10.4,22.25.18,28.28-7.71,4.55-11.88,2.48-19.54-.35-11.12-4.1-18.12-9.85-30.7-10.75-30.21-2.17-52.27,9.22-67.01,35.41-30,53.32,13.86,112.48,73.08,105.04,12.46-1.56,23.27-11.67,36.23-7.66,11.83,3.66,13.04,19.38,6.14,28.11-11.85,15-53.21,18.49-71.02,16.38-66.48-7.85-101.4-72.84-85.53-135.26,10.3-40.51,50.77-70.82,91.93-73.84Z"/>
  <path class="st0" d="M1835.08,184.66c11.37-.86,25.56-.1,27.97,13.79s-5.62,21.14-18.91,22.61-19.23.36-32.11,7.78c-53.14,30.57-31.41,94.84-35.43,145.9-.58,7.31-3.68,15.85-11.19,18.52-11.04,3.93-24.63-.9-25.64-13.83,1.78-33.75-2.26-69.73,0-103.22,3.25-48.21,48.17-88,95.31-91.55Z"/>
  <polygon class="st0" points="344.99 236.78 344.99 176.61 404.05 176.61 405.22 177.78 405.22 235.61 404.05 236.78 344.99 236.78"/>
  <rect class="st0" x="271.45" y="25.01" width="59.45" height="60.17"/>
  <rect class="st0" x="122.82" y="101.59" width="59.45" height="60.17"/>
  <rect class="st0" x="197.92" y="101.59" width="59.45" height="60.17"/>
  <rect class="st0" x="271.45" y="101.59" width="59.45" height="60.17"/>
  <rect class="st0" x="49.28" y="176.61" width="59.45" height="60.17"/>
  <rect class="st0" x="122.82" y="176.61" width="59.45" height="60.17"/>
  <rect class="st0" x="197.92" y="176.61" width="59.45" height="60.17"/>
  <rect class="st0" x="271.45" y="176.61" width="59.45" height="60.17"/>
</svg>