<?xml version="1.0" encoding="UTF-8"?>
<svg id="svg3030" xmlns="http://www.w3.org/2000/svg" xmlns:svg="http://www.w3.org/2000/svg" version="1.1" viewBox="0 0 590.97 159.02">
  <!-- Generator: Adobe Illustrator 29.3.1, SVG Export Plug-In . SVG Version: 2.1.0 Build 151)  -->
  <defs>
    <style>
      .st0 {
        fill: #c4b9a5;
        fill-rule: evenodd;
      }
    </style>
  </defs>
  <g id="layer1">
    <path id="path22" class="st0" d="M298.54,0c-.41,0-.82.1-1.19.32-.73.43-1.19,1.22-1.19,2.06v60.64c0,.6-.28,1.13-.79,1.43-.52.3-1.15.3-1.66,0l-9.91-5.71c-1.48-.85-3.28-.85-4.76,0l-39.56,22.83c-1.48.85-2.38,2.49-2.38,4.2v45.66c0,1.71.9,3.27,2.38,4.12l39.56,22.83c1.48.85,3.28.85,4.76,0l39.56-22.83c1.48-.85,2.38-2.42,2.38-4.12V17.6c0-1.73-.94-3.36-2.46-4.2L299.73.24c-.37-.21-.78-.24-1.19-.24h0ZM44.07,57c-.75.03-1.46.16-2.14.55L2.38,80.38c-1.47.85-2.38,2.4-2.38,4.12l.08,61.28c0,.85.44,1.64,1.19,2.06.73.44,1.65.44,2.38,0l23.46-13.48c1.49-.88,2.46-2.42,2.46-4.12v-28.62c0-1.71.9-3.27,2.38-4.12l9.99-5.79c.75-.43,1.55-.63,2.38-.63s1.65.2,2.38.63l9.99,5.79c1.48.85,2.38,2.42,2.38,4.12v28.62c0,1.7.98,3.25,2.46,4.12l23.46,13.48c.74.44,1.65.44,2.38,0,.73-.42,1.19-1.21,1.19-2.06l.08-61.28c0-1.72-.89-3.27-2.38-4.12l-39.56-22.83c-.67-.39-1.38-.52-2.14-.55h-.48,0ZM399.53,57.55c-.83,0-1.64.21-2.38.63l-39.56,22.83c-1.48.85-2.38,2.42-2.38,4.12v45.66c0,1.72.97,3.27,2.46,4.12l39.24,22.35c1.45.83,3.22.89,4.68.08l23.78-13.24c.75-.42,1.27-1.2,1.27-2.06,0-.86-.44-1.63-1.19-2.06l-39.79-22.83c-.75-.42-1.27-1.29-1.27-2.14v-14.27c0-.85.53-1.63,1.27-2.06l12.37-7.13c.74-.43,1.64-.43,2.38,0l12.37,7.13c.74.43,1.19,1.21,1.19,2.06v11.26c0,.85.45,1.63,1.19,2.06.74.43,1.64.43,2.38,0l23.7-13.79c1.47-.85,2.38-2.42,2.38-4.12v-11.02c0-1.7-.9-3.27-2.38-4.12l-39.32-22.83c-.74-.43-1.55-.63-2.38-.63h0ZM281.26,91.64c.21,0,.45.05.63.16l13.56,7.85c.37.21.63.61.63,1.03v15.7c0,.43-.26.82-.63,1.03l-13.56,7.85c-.37.21-.82.21-1.19,0l-13.56-7.85c-.37-.21-.63-.6-.63-1.03v-15.7c0-.42.27-.82.63-1.03l13.56-7.85c.19-.11.35-.16.55-.16h0Z"/>
    <path id="path28" class="st0" d="M518.04,56.44c-1.37,0-2.7.28-3.88.95l-37.34,21.56c-2.42,1.39-3.88,4.02-3.88,6.82v43.04c0,2.8,1.47,5.42,3.88,6.82l9.75,5.63c4.74,2.33,6.48,2.3,8.64,2.3,7.01,0,11.02-4.26,11.02-11.65v-42.49c0-.6-.52-1.03-1.11-1.03h-4.68c-.6,0-1.11.43-1.11,1.03v42.49c0,3.28-3.42,6.58-8.96,3.81l-10.15-5.95c-.36-.2-.63-.54-.63-.95v-43.04c0-.41.27-.82.63-1.03l37.26-21.48c.35-.2.76-.2,1.11,0l37.26,21.48c.36.21.63.61.63,1.03v43.04c0,.41-.21.83-.55,1.03l-37.34,21.48c-.32.19-.76.19-1.11,0l-9.59-5.71c-.29-.17-.68-.15-.95,0-2.65,1.5-3.15,1.68-5.63,2.54-.61.21-1.54.54.32,1.59l12.52,7.37c1.19.69,2.52,1.03,3.88,1.03s2.69-.34,3.88-1.03l37.34-21.48c2.42-1.41,3.88-4.02,3.88-6.82v-43.04c0-2.8-1.47-5.42-3.88-6.82l-37.34-21.56c-1.17-.67-2.51-.95-3.88-.95h0ZM162.9,57.31c-.82,0-1.64.21-2.38.63l-39.56,22.75c-1.48.85-2.38,2.5-2.38,4.2v45.66c0,1.71.9,3.27,2.38,4.12l39.56,22.83c1.48.85,3.28.85,4.76,0l39.56-22.83c1.48-.85,2.38-2.41,2.38-4.12v-45.66c0-1.71-.9-3.35-2.38-4.2l-39.56-22.75c-.74-.43-1.55-.63-2.38-.63ZM573.45,57.55v1.11h3.09v8.16h1.27v-8.16h3.17v-1.11h-7.53ZM582.09,57.55v9.27h1.19v-5.47c0-.22.01-.57,0-1.03-.02-.47,0-.88,0-1.11v-.24l2.62,7.85h1.27l2.7-7.85c0,.5-.07.98-.08,1.43,0,.43,0,.76,0,.95v5.47h1.19v-9.27h-1.74l-2.7,7.85-2.62-7.85h-1.82ZM528.03,87.2c-10.63,0-16.96,4.52-16.96,12.05,0,8.16,6.28,10.41,16.49,11.42,12.21,1.2,13.16,2.99,13.16,5.39,0,4.17-3.32,5.95-11.18,5.95-9.87,0-12.04-2.46-12.76-7.37-.09-.53-.49-.95-1.03-.95h-4.84c-.6,0-1.11.51-1.11,1.11,0,6.28,3.42,13.71,19.74,13.71,11.81,0,18.63-4.64,18.63-12.76s-5.5-10.22-16.96-11.73c-11.58-1.53-12.68-2.28-12.68-4.99,0-2.24.94-5.23,9.51-5.23,7.66,0,10.49,1.65,11.65,6.82.1.49.53.87,1.03.87h4.84c.3,0,.59-.18.79-.4.2-.23.35-.49.32-.79-.75-8.9-6.68-13.08-18.63-13.08h0ZM399.45,98.06c-.16,0-.33,0-.48.08l-7.61,4.44c-.29.16-.48.46-.48.79v8.72c0,.33.19.63.48.79l7.61,4.36c.29.16.59.16.87,0l7.61-4.36c.28-.16.48-.46.48-.79v-8.72c0-.33-.19-.63-.48-.79l-7.61-4.44c-.14-.08-.24-.08-.4-.08Z"/>
  </g>
</svg>