<?xml version="1.0" encoding="UTF-8"?>
<svg id="Layer_1" xmlns="http://www.w3.org/2000/svg" version="1.1" viewBox="0 0 800 700">
  <!-- Generator: Adobe Illustrator 29.3.1, SVG Export Plug-In . SVG Version: 2.1.0 Build 151)  -->
  <defs>
    <style>
      .st0 {
        fill: #c4b9a5;
      }
    </style>
  </defs>
  <path class="st0" d="M572.08,321.43c-4.98-12.63-21.22-5.17-30.6-4.45-6.64.52-13.78-.33-20.48.01,21.41-37.76,40.82-80.5,47.72-123.77,5.98-37.43,4.37-57.44-27.4-80.04-29.33-20.85-65.91-24.11-100.5-17.86-5.27.95-16.67,5.14-20.31,5.21-4.97.11-15.56-3.21-21.97-3.57-15.13-.86-28.86.98-43.06,6.02-3.09,1.09-8.62,4.84-11.04,5-3.66.23-19.87-5.44-25.4-6.52-57.46-11.2-110.77,1.42-118.92,67.16-5.35,43.27,16.23,116.83,33.41,157.35,11.22,26.45,35.64,76.28,68.97,44.03,6.99,9.91,28.28,13.33,40.01,13.99,10.88.61,18.84-1.22,28.48-5.99.01,19.87-.25,40.76,3.13,60.38,6.9,40.15,40.45,47.17,75.41,35.65,28.15-9.27,34.75-26.4,39.33-53.67,2.91-17.27,3.99-34.99,6.15-52.36,17.14,3.51,42.63.9,57.51-8.98,10.18-6.74,24.63-24.72,19.56-37.59ZM545.92,349.42c-17.19,10.27-38.25,11.71-57.78,9.72-3.23,15.89-3.82,32.24-6.26,48.24-5.23,34.3-12.49,58.07-52.4,61.6-58.89,5.21-46.62-68.37-49.49-105.98-14.19,13.32-40.84,15.97-58.03,7.54-11.51-5.65-14.17-16.52-.94-22.02,12.82-5.32,27.69-2.64,34.98-18.51-5.36,1.94-18.56-6.06-21.96-4.55l-34.03,38.05c-15.44,13.19-30.26,4.69-40.99-9.03-24.17-30.91-51-131.08-49.01-169.97,3.82-74.63,56.09-84.68,119.62-69.64,3.86.91,16.7,5.84,18.89,5.74,1.64-.07,10.78-6.45,13.93-7.66,10.97-4.24,27.36-5.66,39.04-4.94,6.36.39,15.03,3.16,20.96,3.03,9.74-.22,25.6-6.42,38.01-7.08,41.04-2.2,97.99,15,100.58,63.5,1.99,37.21-18.38,91.59-35.53,124.55-5.48,10.55-12.21,20.35-17.51,30.98,7.36,2.53,15.76,2.57,23.54,2.05,7.87-.52,23.54-6.5,29.02-.11,7.57,8.84-7.79,20.4-14.64,24.49Z"/>
  <path class="st0" d="M599.02,604.53c12.84-11,15.27-30.63,11.33-46.38-10.43-41.72-79.67-39.07-83.39,7.31-3.37,42.12,29.65,59.16,66.39,44.71l12.34,9.7,5.28-4.37-11.96-9.52v-1.45ZM564.51,608.99c-41.98-4.15-41.86-79.11,9.98-73.98,30.24,2.99,38.97,45.36,20.16,64.64-7.49,7.67-19.7,10.37-30.14,9.34Z"/>
  <path class="st0" d="M522,554l-7.96-.05c.76-19.03-23.92-22.39-37.59-17-11.4,4.49-12.81,20.93-2.01,26.1,12.48,5.97,45.67,4.53,49.11,20.89,5.53,26.3-16.44,32.96-38.04,31.04-16.78-1.49-29.14-9.74-28.52-27.99h8c-1.29,21.56,26.8,26.29,42.25,19.75,10.25-4.34,12.42-21.61,3.33-26.77-11.55-6.54-37.99-5.88-46.57-14.47-8.6-8.61-5.49-28.37,6.71-33.29,18.09-7.29,52.85-4.53,51.29,21.79Z"/>
  <path class="st0" d="M366,564h-6.01s0,8,0,8c-6.39-9.5-20.3-11.58-30.38-6.89-12.81,5.96-14.61,25.19-7.04,35.82,6.44,9.05,24.87,9.87,33.37,3.51,2.08-1.54,2.26-3.49,4.05-4.43.71,11.97-.29,22.84-14.45,24.03-7.53.63-18.27-.46-18.65-9.92l-6.89-.11c2.73,12.1,11.09,14.53,22.5,14.42,11.52-.11,21.78-4.19,23.5-16.93,1.93-14.33-1.44-32.72,0-47.5ZM347.06,603.56c-27.85,5.82-29.16-31.85-10.33-35.33,2.7-.5,6.96-.52,9.68-.14,17.51,2.42,18.67,31.7.65,35.47Z"/>
  <path class="st0" d="M182.54,542.96c-.84-.44-4.55-1.96-5.04-1.96h-38.5v68h7v-29h30.5c.35,0,5.78-2.18,6.43-2.57,11.29-6.83,11.7-28.24-.39-34.47ZM182.03,570.26c-.83,1.12-7.52,4.74-8.53,4.74h-27.5v-29c8.33.78,18.4-1.05,26.5,0,11.72,1.52,16.02,15.52,9.53,24.26Z"/>
  <polygon class="st0" points="626 531 626 607 677 607 677 613 618 613 618 531 626 531"/>
  <path class="st0" d="M399.92,587.49c.55,27.44,39.7,32.71,47.08,7.52-8.51-2.13-7.45,7.29-14.42,10.07-12.82,5.11-26.78-2.68-26.58-17.08h42c2.29-32.92-48.75-33.91-48.08-.51ZM406,584c2.44-22.29,34.08-22.14,36,0h-36Z"/>
  <path class="st0" d="M288,578l-5.91-.09c-.46-4.19-1.88-7.79-6.08-9.42-6.87-2.66-24.19-2.08-22,8.98,2.06,10.43,37.46,1.22,35.78,20.75-1.38,15.99-33.12,15.87-40.25,6.74-3.85-4.93-5.45-12.03,3.45-9.95-1.43,11.81,13.14,11.95,21.5,11,6.64-.76,12.48-6.48,7.51-12.52-6.84-8.32-42.07-.2-32.91-22.88,4.83-11.95,41.19-11.13,38.9,7.39Z"/>
  <path class="st0" d="M211.76,563.26c-15.59,2.27-20.92,18.91-17.08,32.56,6.24,22.18,43.72,19.63,46.32-3.32,2.3-20.2-8.61-32.24-29.24-29.24ZM230.66,601.66c-8.26,8.23-26.34,5.34-30.18-6.64-5.72-17.83,8.43-33.32,26.42-25.42,10.79,4.75,11.25,24.6,3.76,32.06Z"/>
  <path class="st0" d="M308,550v15l10.02-.42-.02,4.43h-10.01s0,33.49,0,33.49c0,2.72,7.87,2.85,10,2.49v5.01c-3.9.73-16-.15-16-5.5v-35.5c-4.36-.03-11.77,1.59-6.36-4.86l6.36-.14v-14h6Z"/>
  <path class="st0" d="M375,565.5l5-1.5c.72.69-1.33,7.55.99,8,2.29-8.93,11.2-9.33,19.02-9v6.01c-8.2-1.12-16.59.64-18.78,9.72-.2.82-1.22,7.32-1.22,7.78v22.5h-5v-43.5Z"/>
  <path class="st0" d="M482.83,305.67c3.09,5.24,6.9,10.48,11.17,14.83-7.27,1.78-14.5,8.62-15.76,16.24-4.77,28.9-3.12,70-12.96,97.04-9.98,27.47-60.35,36.97-69.98.42-5.39-20.42-3.1-48.58-3.26-69.66-.15-19.16,2.83-44.23-24.04-43.55,6.29-20.34,17.61-38.76,18.99-60.5.82-13-2.28-44.53-10.16-54.82-13.26-17.29-40.74-9.89-56.82-.67,3.89-56.91,34.68-96.27,96.02-83.53,37.87,7.86,66.28,37.37,79.97,72.52-21.22-2.91-45.21,2.99-46.01,28.55-.72,22.6,21.12,63.28,32.84,83.13Z"/>
  <path class="st0" d="M307.27,286.23c2.54,12.8,9.37,22.53,17.66,32.13l-30.39,34.68c-20.72,19.43-38.19-23.73-44.29-38.79-21.4-52.8-63.76-186.62,27.55-193.95,19.53-1.57,41.9,2.43,60.18,9.2-18.8,19.27-28.34,49.48-29.97,76.01-.77,12.53,1.15,24.83,1.03,37.04-.15,14.57-4.64,29.17-1.77,43.68Z"/>
  <path class="st0" d="M547.88,192.38c-4.92,34.6-20.15,69.37-35.71,100.29l-11.65,18.32c-2.56-1.89-.74-1.62-.1-3.07,13.65-30.89,3.26-42.61,4.59-72.41.6-13.49,5.91-30.05,2.29-43.32-5.76-21.07-26.2-47.31-43.4-60.59-7.08-5.46-15.14-9.19-21.9-14.59,35.6-5.1,70.71-1.36,96.42,25.58,14.08,14.76,12.21,30.43,9.46,49.79Z"/>
  <path class="st0" d="M371.72,221.78c-6.79-26-36.29-12.74-52.5-3.58.48,11.06,1.3,22.24.82,33.34-.41,9.64-2.96,18.98-2.08,29,1.69,19.21,18.22,38.31,38.41,37.32,1.95-.67,4.73-12.32,5.86-15.13,12.1-29.94,18.18-47.72,9.49-80.95ZM358.04,225.57c-8.74.78-16.14-11.39-7.32-13.34,5.51-1.22,13.07.39,16.14,5.48.23,4.79-4.55,7.47-8.82,7.86Z"/>
  <path class="st0" d="M494.01,230.51c.54-7.92,3.4-15.9,2.83-23.85l-1.34-1.66h-17c-6.99,0-15.39,6.35-16.41,13.59-3.71,26.23,19.28,56.47,29.42,79.42,1.93.57,2.65-3.72,3-5,5.38-19.63-1.91-41.68-.5-62.5ZM484.55,218.05c-7.62,7.52-18.94-1.02-14.28-5.79,4.95-5.07,24.46-4.28,14.28,5.79Z"/>
  <path class="st0" d="M360.79,361.29c-8.96,3.02-23.66,3.58-32.37-.21-1.51-.65-2.79-1.08-2.42-3.07,10.29-1.9,22.56-3.73,30.53-10.98,5.67-5.17,11.36-19.55,19.83-12.89,12.02,9.45-6.49,24.09-15.57,27.15Z"/>
  <path class="st0" d="M547,334.01l-12.34,8.15c-10.06,4.68-28.22,7.5-39.16,5.83-6.34-.96-7.28-1.56-6.26-8.25.76-4.92,4.25-8.36,9.39-8.72,3.62-.26,3.97,1.69,6.37,2.49,13.69,4.53,27.96,2.53,42,.5Z"/>
</svg>