<?xml version="1.0" encoding="UTF-8"?>
<svg id="Layer_1" xmlns="http://www.w3.org/2000/svg" version="1.1" viewBox="0 0 441 128">
  <!-- Generator: Adobe Illustrator 29.3.1, SVG Export Plug-In . SVG Version: 2.1.0 Build 151)  -->
  <defs>
    <style>
      .st0 {
        fill: #c4b9a5;
      }
    </style>
  </defs>
  <path class="st0" d="M166.97,40.92c11.61,0,23.82,4.61,31.39,13.52.05.06.04.15-.01.2l-11.39,9.86c-.06.05-.15.04-.2-.01-2.32-2.63-5.19-4.74-8.42-6.17-3.28-1.45-6.84-2.18-10.44-2.13-13.41,0-22.35,9.19-22.35,22.63,0,6.71,2.22,12.34,6.09,16.29,2.13,2.08,4.67,3.72,7.46,4.81,2.8,1.09,5.79,1.6,8.8,1.51,3.56.03,7.09-.65,10.38-2,3.24-1.33,6.18-3.29,8.63-5.75.05-.05.14-.06.19,0l11.65,10.05c.06.05.07.14.01.2-6.5,7.17-18,12.87-32.4,12.87-11.14,0-20.79-3.91-27.57-10.57-6.78-6.65-10.79-16.08-10.79-27.27,0-22.63,16.17-38.01,38.97-38.01ZM272.3,40.92c22.07,0,36.34,15.52,36.34,36.95-.03,2.23-.18,4.45-.46,6.66,0,.07-.07.12-.14.12h-54.26c-.09,0-.16.08-.14.17,2.32,10.29,10.27,16.56,21.26,16.56,3.58.07,7.13-.66,10.37-2.15,3.2-1.47,6.01-3.64,8.24-6.33.05-.06.14-.07.2-.02l.45.37,11.16,9.72c.06.05.07.14.02.19-6.32,7.83-16.81,13.6-31.36,13.6-21.77,0-38.2-15.08-38.2-37.98,0-11.24,3.87-20.66,10.32-27.32,3.4-3.42,7.48-6.12,11.99-7.93,4.51-1.81,9.34-2.7,14.21-2.61ZM225.66,11.98c.08,0,.14.06.14.14v103.51c0,.08-.06.14-.14.14h-16.68c-.08,0-.14-.06-.14-.14V12.12c0-.08.06-.14.14-.14h16.68ZM361.39,40.92c.08,0,.14.06.14.14v18.55c0,.08-.07.15-.15.14-1.94-.15-3.88-.29-5.07-.29-13.06,0-20.72,9.19-20.72,21.25v34.91c0,.08-.06.14-.14.14h-16.68c-.08,0-.14-.06-.14-.14V42.1c0-.08.06-.14.14-.14h16.68c.08,0,.14.06.14.14v10.94c0,.06.05.1.1.1.03,0,.06-.02.08-.04,5.85-7.81,14.49-12.16,23.61-12.16l2.01-.02ZM388.33,11.98c.08,0,.14.06.14.14v63.17c0,.13.16.19.24.09l30.69-33.46s.06-.05.1-.05h20.06c.12,0,.19.15.1.24l-26.75,29.52s-.05.12-.02.17l27.12,43.76c.06.09,0,.21-.12.21h-19.03s-.1-.03-.12-.07l-19.23-30.91s-.07-.07-.12-.07h-.18s-.08.02-.1.04l-12.61,13.55s-.04.06-.04.1v17.21c0,.08-.06.14-.14.14h-16.68c-.08,0-.14-.06-.14-.14V12.12c0-.08.06-.14.14-.14h16.68ZM273.18,56.15c-2.76-.09-5.49.41-8.04,1.46-2.54,1.05-4.82,2.63-6.68,4.62-2.2,2.49-3.76,5.47-4.54,8.68-.02.09.04.17.13.17h37.04c.09,0,.16-.09.14-.17-2.16-8.8-8.29-14.76-18.05-14.76Z"/>
  <circle class="st0" cx="64" cy="64" r="20"/>
  <path class="st0" d="M99.57,10.79c2,1.34,2.17,4.16.47,5.86l-14.62,14.62c-1.32,1.32-3.37,1.53-5.03.68-4.92-2.52-10.49-3.94-16.39-3.94-19.88,0-36,16.12-36,36,0,5.9,1.42,11.48,3.94,16.39.85,1.66.64,3.71-.68,5.03l-14.62,14.62c-1.7,1.7-4.52,1.53-5.86-.47C3.97,89.4,0,77.16,0,64,0,28.65,28.65,0,64,0c13.16,0,25.4,3.97,35.57,10.79Z"/>
  <path class="st0" d="M100.04,111.35c1.7,1.7,1.53,4.52-.47,5.86-10.17,6.81-22.41,10.79-35.57,10.79s-25.4-3.97-35.57-10.79c-2-1.34-2.17-4.16-.47-5.86l14.62-14.62c1.32-1.32,3.37-1.53,5.03-.68,4.92,2.52,10.49,3.94,16.39,3.94s11.48-1.42,16.39-3.94c1.66-.85,3.71-.64,5.03.68l14.62,14.62Z"/>
</svg>