<?xml version="1.0" encoding="UTF-8"?>
<svg id="Layer_1" xmlns="http://www.w3.org/2000/svg" version="1.1" viewBox="0 0 2136 2500">
  <!-- Generator: Adobe Illustrator 29.3.1, SVG Export Plug-In . SVG Version: 2.1.0 Build 151)  -->
  <defs>
    <style>
      .st0 {
        fill: #fff;
      }

      .st0, .st1 {
        fill-rule: evenodd;
      }

      .st1 {
        fill: #c4b9a5;
      }
    </style>
  </defs>
  <g id="Layer_11" data-name="Layer_1" image-rendering="optimizeQuality" shape-rendering="geometricPrecision" text-rendering="geometricPrecision">
    <path class="st1" d="M773.88,673.46c21.21,6.83,48.76,25.11,69.23,36.32,18.77,10.24,19.5,7.56,26.33,27.55,4.14,12.43,8.05,25.6,11.95,37.79,17.06,51.92,34.86,104.82,51.92,156.26,23.4,71.67,301.55,909.05,307.16,939.28-15.84-5.85-37.06-21.21-52.65-30.72-28.76-17.79-25.6-10.24-39.25-43.88l-144.56-345.68c-23.4-57.29-176.74-433.44-194.78-456.11-11.95-9.26-37.05,27.06-50.46,45.59-38.76,53.39-272.79,362.98-281.32,383.71-15.36-3.66-53.39-25.35-63.87-35.35l360.54-714.76h-.25,0ZM807.03,649.08c23.64-19.99,258.16-150.41,307.4-179.66,24.14-14.38,28.28-23.4,55.09-7.07,14.87,9.02,36.32,21.7,51.19,27.3-13.65,18.77-281.57,167.23-309.6,183.32-28.03,16.09-24.87,24.62-54.12,6.58-16.09-9.99-36.81-18.77-49.73-30.47h-.25ZM375.54,1406.5c17.55,11.22,38.27,22.43,59.48,35.11,56.56,34.13,29.01,30.72,189.9-61.68l249.63-144.8c12.68,12.68,208.43,490.24,243.53,574.58,21.21,50.95,27.06,42.91,68.74,68.5,107.26,66.31,63.87,68.99,187.22-2.93,44.12-25.84,288.87-162.6,293.26-175.28.25-21.21-117.02-373.96-127.74-389.8-33.64-4.87-55.83,1.46-92.88-8.05-172.84-44.12-250.85-264.74-98.49-408.33,46.8-44.12,53.39-14.14,26.57-96.78l-102.14-309.6c-6.09-11.21-113.11-76.79-134.32-70.45-10.49,3.17-53.39,30.47-66.55,38.03-87.03,49.97-173.08,99.22-260.6,150.65-73.62,43.15-49.73,20.72-94.58,108.97l-276.21,546.54c-14.87,29.26-66.8,115.31-64.6,144.8l-.25.49h0Z"/>
    <path class="st0" d="M413.57,1388.22c10.49,10.24,48.51,31.94,63.87,35.35,8.53-20.72,242.56-330.08,281.32-383.71,13.41-18.52,39.25-55.09,50.46-45.59,18.04,22.67,171.13,398.82,194.78,456.11l144.56,345.68c13.41,33.64,10.24,26.33,39.25,43.88,15.36,9.51,36.57,24.87,52.65,30.72-5.61-30.23-283.51-867.61-307.16-939.28-16.82-51.44-34.62-104.34-51.92-156.26-3.9-12.19-7.8-25.35-11.95-37.79-6.83-19.99-7.56-17.31-26.33-27.55-20.48-11.22-48.03-29.5-69.23-36.32l-360.55,714.76h.25Z"/>
    <path class="st1" d="M1475.47,956.73c54.12-14.87,137,23.16,122.38,70.45-33.15,108.48-157.72,139.2-182.34,123.59-32.42-20.48-69.96-158.45,59.97-194.29v.25h0ZM1480.59,921.14c-202.34,30.96-150.41,337.88,48.03,303.26,74.84-13.17,139.44-84.35,125.06-175.04-11.7-74.35-83.62-141.88-173.08-128.23h0Z"/>
    <path class="st0" d="M1475.47,956.73c-129.94,35.84-92.39,173.57-59.97,194.29,24.62,15.6,149.44-15.36,182.34-123.59,14.38-47.53-68.5-85.32-122.38-70.45v-.25h0ZM807.27,649.33c12.68,11.7,33.4,20.48,49.73,30.47,29.5,18.04,26.08,9.51,54.12-6.58,28.28-16.09,295.95-164.3,309.6-183.32-14.87-5.61-36.32-18.52-51.19-27.3-26.82-16.33-30.96-7.31-55.09,7.07-49.24,29.26-283.75,159.68-307.4,179.66h.25Z"/>
  </g>
</svg>