<?xml version="1.0" encoding="UTF-8"?>
<svg id="Layer_1" xmlns="http://www.w3.org/2000/svg" version="1.1" viewBox="0 0 23 20.46">
  <!-- Generator: Adobe Illustrator 29.3.1, SVG Export Plug-In . SVG Version: 2.1.0 Build 151)  -->
  <defs>
    <style>
      .st0 {
        fill: #c4b9a5;
      }
    </style>
  </defs>
  <circle class="st0" cx="11.5" cy="10.22" r="1.63"/>
  <g>
    <path class="st0" d="M11.5,13.97c-5.14,0-9.17-1.64-9.17-3.75s4.03-3.75,9.17-3.75,9.17,1.64,9.17,3.75-4.03,3.75-9.17,3.75ZM11.5,7.27c-4.94,0-8.37,1.55-8.37,2.95s3.44,2.95,8.37,2.95,8.37-1.55,8.37-2.95-3.44-2.95-8.37-2.95Z"/>
    <path class="st0" d="M15.16,18.41c-.81,0-1.79-.45-2.86-1.32-1.41-1.15-2.85-2.92-4.04-4.99-1.2-2.07-2.01-4.2-2.3-6-.31-1.93.03-3.29.96-3.82,1.83-1.04,5.26,1.62,7.83,6.07h0c1.2,2.07,2.01,4.2,2.3,6,.31,1.93-.03,3.29-.96,3.82-.27.16-.58.24-.92.24h0ZM7.84,2.85c-.2,0-.37.04-.53.13-.61.35-.82,1.44-.57,3,.27,1.71,1.05,3.74,2.2,5.73,1.15,1.99,2.52,3.68,3.86,4.77,1.22,1,2.27,1.36,2.89,1s.82-1.45.57-3c-.27-1.71-1.05-3.74-2.2-5.73h0c-2.17-3.75-4.79-5.9-6.22-5.9Z"/>
    <path class="st0" d="M7.84,18.41c-.34,0-.65-.08-.92-.24-.92-.53-1.27-1.89-.96-3.82.29-1.79,1.11-3.93,2.3-6,2.57-4.45,6-7.12,7.83-6.07,1.82,1.05,1.23,5.36-1.34,9.82h0c-1.2,2.07-2.63,3.84-4.04,4.99-1.07.87-2.05,1.32-2.86,1.32ZM15.16,2.85c-1.43,0-4.05,2.15-6.22,5.9-1.15,1.99-1.93,4.02-2.2,5.73-.25,1.55-.04,2.65.57,3,.61.35,1.67-.02,2.89-1,1.34-1.08,2.71-2.78,3.86-4.77,2.46-4.27,2.84-8.03,1.63-8.72-.15-.09-.33-.13-.53-.13Z"/>
  </g>
</svg>