<?xml version="1.0" encoding="UTF-8"?>
<svg id="layer" xmlns="http://www.w3.org/2000/svg" xmlns:xlink="http://www.w3.org/1999/xlink" version="1.1" viewBox="0 0 1319.43 872.33">
  <!-- Generator: Adobe Illustrator 29.3.1, SVG Export Plug-In . SVG Version: 2.1.0 Build 151)  -->
  <defs>
    <style>
      .st0 {
        fill: #c4b9a5;
        fill-rule: evenodd;
      }
    </style>
  </defs>
  <path class="st0" d="M183.91,637.18h-27.57v53.35c0,14.3,9.44,14.04,27.57,13.27v21.7c-37.01,4.34-51.56-5.87-51.56-34.72v-53.35h-20.42v-23.23h20.42v-29.87l24-7.15v37.01h27.57v22.97ZM289.08,613.95h24v111.3h-24v-16.08c-8.42,11.74-21.7,18.89-39.06,18.89-30.38,0-55.39-25.53-55.39-58.46s25.27-58.46,55.39-58.46,30.63,7.15,39.06,18.63v-15.83h0ZM253.85,705.33c20.17,0,35.23-14.81,35.23-35.74s-15.06-35.74-35.23-35.74-35.23,14.81-35.23,35.74,15.32,35.74,35.23,35.74h0ZM353.15,597.35c-8.42,0-15.32-7.15-15.32-15.32s6.89-15.32,15.32-15.32,15.32,6.89,15.32,15.32c.26,8.17-6.89,15.32-15.32,15.32h0ZM341.15,725.24v-111.3h24v111.3h-24ZM392.97,725.24v-162.61h24v162.61h-24ZM573.19,613.95h25.27l-34.97,111.3h-23.48l-23.23-75.05-23.48,75.05h-23.48l-34.97-111.3h25.27l21.7,76.84,23.48-76.84h22.97l23.23,76.84,21.7-76.84h0ZM628.59,597.35c-8.42,0-15.32-7.15-15.32-15.32s6.89-15.32,15.32-15.32,15.32,6.89,15.32,15.32-6.89,15.32-15.32,15.32h0ZM616.33,725.24v-111.3h24v111.3h-24ZM726.87,611.14c25.02,0,42.89,16.85,42.89,45.95v68.41h-24v-66.11c0-16.85-9.7-25.78-25.02-25.78s-28.33,9.44-28.33,32.16v59.73h-24v-111.3h24v14.3c7.4-11.74,19.4-17.36,34.46-17.36h0ZM883.6,569.53h24v155.97h-24v-16.08c-8.42,11.74-21.7,18.89-39.06,18.89-30.38,0-55.39-25.53-55.39-58.46s25.27-58.46,55.39-58.46,30.63,7.15,39.06,18.63v-60.5ZM848.63,705.33c20.17,0,35.23-14.81,35.23-35.74s-15.06-35.74-35.23-35.74-35.23,14.81-35.23,35.74,15.06,35.74,35.23,35.74h0ZM988.26,728.31c-33.7,0-58.71-25.53-58.71-58.46s25.27-58.46,58.71-58.46,40.84,11.23,49.78,28.85l-20.68,12c-4.85-10.47-15.83-17.1-29.1-17.1-19.66,0-34.46,14.81-34.46,34.97s14.81,34.97,34.46,34.97,24.25-6.89,29.61-17.1l20.68,11.74c-9.44,17.1-28.33,28.59-50.29,28.59h0ZM1078.12,644.83c0,20.17,59.99,7.91,59.99,49.27s-19.4,34.21-43.4,34.21-38.29-9.96-45.44-26.04l20.68-12c3.57,9.96,12.51,16.08,24.76,16.08s18.89-3.57,18.89-12.51c0-19.91-59.99-8.68-59.99-48.5s18.12-33.95,40.84-33.95,33.44,8.42,41.1,23.23l-20.17,11.23c-4.08-8.68-11.74-12.76-20.93-12.76-8.68,0-16.34,3.57-16.34,11.74h0ZM1180.73,644.83c0,20.17,59.99,7.91,59.99,49.27s-19.4,34.21-43.4,34.21-38.29-9.96-45.44-26.04l20.68-12c3.57,9.96,12.51,16.08,24.76,16.08s18.89-3.57,18.89-12.51c0-19.91-59.99-8.68-59.99-48.5s18.12-33.95,40.84-33.95,33.44,8.42,41.1,23.23l-20.17,11.23c-4.08-8.68-11.74-12.76-20.93-12.76-8.68,0-16.34,3.57-16.34,11.74h0Z"/>
  <path class="st0" d="M676.32,111.99c-77.77,0-126.79,39.12-146.12,116.9,29.22-39.12,63.16-53.73,102.28-43.84,22.15,5.66,38.18,21.68,55.62,39.59,28.75,29.22,61.75,62.69,134.34,62.69s126.79-39.12,146.12-116.9c-29.22,39.12-63.16,53.73-102.28,43.84-22.15-5.66-38.18-21.68-55.62-39.59-28.75-29.22-61.75-62.69-134.34-62.69h0ZM530.2,286.86c-77.77,0-126.79,39.12-146.12,116.9,29.22-39.12,63.16-53.73,102.28-43.84,22.15,5.66,38.18,21.68,55.62,39.59,28.75,29.22,61.75,62.69,134.34,62.69s126.79-39.12,146.12-116.9c-29.22,39.12-63.16,53.73-102.28,43.84-22.15-5.66-38.18-21.68-55.62-39.59-28.75-28.75-61.75-62.69-134.34-62.69h0Z"/>
</svg>